# xmcd
#
# Track frame offsets: 
#        300
#        12955
#        26869
#        40566
#        53061
#        66989
#        77227
#        90507
#        101476
#        114672
#        126906
#        139945
#        151987
#        165273
#
# Disc length: 2395 seconds
#
# Revision: 0
# Processed by: cddbd v1.5.2PL0 Copyright (c) Steve Scherf et al.
# Submitted via: ExactAudioCopy v1.0b1
#
DISCID=b109570e
DTITLE=Albert King and Otis Rush - Door To Door
DYEAR=1969
DGENRE=General Electric Blues
TTITLE0=Albert King - Searchin' For A Woman
TTITLE1=Albert King - Bad Luck
TTITLE2=Otis Rush - So Close
TTITLE3=Albert King - Callin' For My Darlin'
TTITLE4=Otis Rush - I Can't Stop
TTITLE5=Albert King - Won't Be Hangin' Around
TTITLE6=Otis Rush - I'm Satisfied
TTITLE7=Otis Rush - All Your Love
TTITLE8=Otis Rush - You Know My Love
TTITLE9=Albert King - Merry Way
TTITLE10=Albert King - Wild Women
TTITLE11=Albert King - Murder
TTITLE12=Otis Rush - So Many Roads, So Many Trains
TTITLE13=Albert King - California
EXTD=
EXTT0=
EXTT1=
EXTT2=
EXTT3=
EXTT4=
EXTT5=
EXTT6=
EXTT7=
EXTT8=
EXTT9=
EXTT10=
EXTT11=
EXTT12=
EXTT13=
PLAYORDER=
